Title                            : Akmareul boatda
Also Known As                    : I Saw the Devil
Year                             : 2010
Genre                            : Crime | Drama | Horror
iMDB URL                         : http://www.imdb.com/title/tt1588170/

Complete name                    : I.Saw.the.Devil.2010.BRRIP.720P.H264-ZEKTORM.mp4
Format                           : MPEG-4
Format profile                   : Base Media
Codec ID                         : isom
File size                        : 3.13 GiB
Duration                         : 2h 22mn
Overall bit rate                 : 3147 Kbps
Subtitles                        : English (Format: srt)

Video
ID                               : 1
Format                           : AVC
Format/Info                      : Advanced Video Codec
Format profile                   : High@L4.0
Format settings, CABAC           : Yes
Format settings, ReFrames        : 9 frames
Codec ID                         : avc1
Codec ID/Info                    : Advanced Video Coding
Duration                         : 2h 22mn
Bit rate mode                    : Variable
Bit rate                         : 2697 Kbps
Width                            : 1280 pixels
Height                           : 688 pixels
Display aspect ratio             : 1.860
Frame rate mode                  : Constant
Frame rate                       : 23.976 fps
Resolution                       : 24 bits
Colorimetry                      : 4:2:0
Scan type                        : Progressive
Bits/(Pixel*Frame)               : 0.128
Stream size                      : 2.68 GiB (86%)
Title                            : Video
Writing library                  : x264

Audio
ID                               : 2
Format                           : AAC
Format/Info                      : Advanced Audio Codec
Format version                   : Version 4
Format profile                   : LC
Format settings, SBR             : No
Codec ID                         : 40
Duration                         : 2h 22mn
Bit rate mode                    : Variable
Bit rate                         : 446 Kbps
Maximum bit rate                 : 626 Kbps
Channel(s)                       : 6 channels
Channel positions                : Front: L C R, Rear: L R, LFE
Sampling rate                    : 48.0 KHz
Resolution                       : 16 bits
Stream size                      : 453 MiB (14%)
Language                         : Korean


Screenshots:

[img]http://img217.imageshack.us/img217/1625/snapistd1.png[/img]

[img]http://img856.imageshack.us/img856/4162/snapistd2.png[/img]

[img]http://img545.imageshack.us/img545/3615/snapistd3.png[/img]

[img]http://img820.imageshack.us/img820/6388/snapistd4.png[/img]

